<?xml version="1.0" encoding="utf-8"?>
<svg width="784" height="347" viewBox="277.703 98.217 506.297 177.51" fill="none" xmlns="http://www.w3.org/2000/svg">
  <path d="M295.027 190V113.869H312.646V190H295.027ZM367.148 191.305C361.275 191.305 355.8 190.363 350.725 188.477C345.722 186.52 341.372 183.764 337.674 180.212C333.976 176.659 331.076 172.49 328.973 167.704C326.943 162.919 325.928 157.662 325.928 151.934C325.928 146.206 326.943 140.95 328.973 136.164C331.076 131.379 333.976 127.21 337.674 123.657C341.444 120.104 345.831 117.385 350.834 115.5C355.837 113.543 361.311 112.564 367.256 112.564C373.854 112.564 379.8 113.724 385.093 116.044C390.458 118.292 394.954 121.627 398.579 126.05L387.268 136.491C384.658 133.518 381.758 131.307 378.567 129.856C375.377 128.334 371.897 127.572 368.126 127.572C364.574 127.572 361.311 128.153 358.338 129.313C355.365 130.473 352.791 132.14 350.616 134.315C348.441 136.491 346.737 139.065 345.505 142.037C344.345 145.01 343.765 148.309 343.765 151.934C343.765 155.56 344.345 158.859 345.505 161.831C346.737 164.804 348.441 167.378 350.616 169.553C352.791 171.729 355.365 173.396 358.338 174.556C361.311 175.716 364.574 176.296 368.126 176.296C371.897 176.296 375.377 175.571 378.567 174.121C381.758 172.599 384.658 170.315 387.268 167.269L398.579 177.71C394.954 182.133 390.458 185.505 385.093 187.825C379.8 190.145 373.818 191.305 367.148 191.305ZM399.09 190L433.023 113.869H450.425L484.466 190H465.977L438.135 122.787H445.095L417.144 190H399.09ZM416.057 173.686L420.733 160.309H459.887L464.672 173.686H416.057ZM527.737 191.305C521.864 191.305 516.39 190.363 511.314 188.477C506.311 186.52 501.961 183.764 498.263 180.212C494.565 176.659 491.665 172.49 489.562 167.704C487.532 162.919 486.517 157.662 486.517 151.934C486.517 146.206 487.532 140.95 489.562 136.164C491.665 131.379 494.565 127.21 498.263 123.657C502.033 120.104 506.42 117.385 511.423 115.5C516.426 113.543 521.9 112.564 527.846 112.564C534.444 112.564 540.389 113.724 545.682 116.044C551.047 118.292 555.543 121.627 559.168 126.05L547.857 136.491C545.247 133.518 542.347 131.307 539.156 129.856C535.966 128.334 532.486 127.572 528.716 127.572C525.163 127.572 521.9 128.153 518.927 129.313C515.955 130.473 513.381 132.14 511.205 134.315C509.03 136.491 507.326 139.065 506.094 142.037C504.934 145.01 504.354 148.309 504.354 151.934C504.354 155.56 504.934 158.859 506.094 161.831C507.326 164.804 509.03 167.378 511.205 169.553C513.381 171.729 515.955 173.396 518.927 174.556C521.9 175.716 525.163 176.296 528.716 176.296C532.486 176.296 535.966 175.571 539.156 174.121C542.347 172.599 545.247 170.315 547.857 167.269L559.168 177.71C555.543 182.133 551.047 185.505 545.682 187.825C540.389 190.145 534.407 191.305 527.737 191.305ZM605.907 191.305C600.034 191.305 594.56 190.363 589.485 188.477C584.482 186.52 580.131 183.764 576.434 180.212C572.736 176.659 569.836 172.49 567.733 167.704C565.703 162.919 564.688 157.662 564.688 151.934C564.688 146.206 565.703 140.95 567.733 136.164C569.836 131.379 572.736 127.21 576.434 123.657C580.204 120.104 584.59 117.385 589.593 115.5C594.596 113.543 600.07 112.564 606.016 112.564C612.614 112.564 618.559 113.724 623.852 116.044C629.218 118.292 633.713 121.627 637.338 126.05L626.028 136.491C623.417 133.518 620.517 131.307 617.327 129.856C614.137 128.334 610.656 127.572 606.886 127.572C603.333 127.572 600.07 128.153 597.098 129.313C594.125 130.473 591.551 132.14 589.376 134.315C587.201 136.491 585.497 139.065 584.264 142.037C583.104 145.01 582.524 148.309 582.524 151.934C582.524 155.56 583.104 158.859 584.264 161.831C585.497 164.804 587.201 167.378 589.376 169.553C591.551 171.729 594.125 173.396 597.098 174.556C600.07 175.716 603.333 176.296 606.886 176.296C610.656 176.296 614.137 175.571 617.327 174.121C620.517 172.599 623.417 170.315 626.028 167.269L637.338 177.71C633.713 182.133 629.218 185.505 623.852 187.825C618.559 190.145 612.578 191.305 605.907 191.305ZM665.442 144.539H702.093V158.242H665.442V144.539ZM666.747 175.861H708.184V190H649.237V113.869H706.77V128.007H666.747V175.861ZM747.217 191.305C741.127 191.305 735.29 190.508 729.707 188.912C724.124 187.245 719.629 185.106 716.221 182.496L722.203 169.227C725.465 171.547 729.308 173.469 733.731 174.991C738.226 176.441 742.758 177.166 747.326 177.166C750.806 177.166 753.598 176.84 755.7 176.188C757.875 175.463 759.471 174.484 760.486 173.251C761.501 172.019 762.008 170.605 762.008 169.01C762.008 166.979 761.211 165.384 759.616 164.224C758.021 162.992 755.918 162.013 753.308 161.288C750.697 160.49 747.797 159.765 744.607 159.113C741.489 158.387 738.335 157.517 735.145 156.502C732.027 155.487 729.163 154.182 726.553 152.587C723.943 150.992 721.804 148.889 720.136 146.279C718.541 143.669 717.743 140.333 717.743 136.273C717.743 131.923 718.904 127.971 721.224 124.418C723.616 120.793 727.169 117.929 731.882 115.827C736.668 113.651 742.649 112.564 749.827 112.564C754.613 112.564 759.326 113.144 763.966 114.304C768.606 115.391 772.703 117.059 776.256 119.307L770.818 132.684C767.265 130.654 763.712 129.168 760.159 128.225C756.607 127.21 753.126 126.702 749.719 126.702C746.311 126.702 743.519 127.101 741.344 127.899C739.169 128.696 737.61 129.748 736.668 131.053C735.725 132.285 735.254 133.735 735.254 135.403C735.254 137.361 736.051 138.956 737.646 140.188C739.241 141.349 741.344 142.291 743.954 143.016C746.565 143.741 749.429 144.466 752.546 145.191C755.737 145.916 758.891 146.75 762.008 147.693C765.199 148.635 768.099 149.904 770.709 151.499C773.319 153.095 775.422 155.197 777.017 157.807C778.685 160.418 779.518 163.717 779.518 167.704C779.518 171.982 778.322 175.898 775.929 179.45C773.537 183.003 769.948 185.867 765.162 188.042C760.449 190.218 754.468 191.305 747.217 191.305Z" fill="black"/>
  <path d="M289.359 265.681V259.507L315.234 234.54C317.534 232.361 319.229 230.455 320.319 228.82C321.469 227.126 322.225 225.582 322.588 224.19C323.012 222.738 323.224 221.345 323.224 220.014C323.224 216.745 322.074 214.173 319.774 212.297C317.474 210.42 314.115 209.482 309.696 209.482C306.307 209.482 303.25 210.057 300.526 211.207C297.803 212.297 295.442 214.022 293.445 216.382L287.271 211.026C289.692 207.939 292.93 205.578 296.986 203.944C301.101 202.249 305.611 201.402 310.513 201.402C314.932 201.402 318.775 202.128 322.044 203.581C325.312 204.973 327.824 207.001 329.579 209.664C331.395 212.327 332.303 215.474 332.303 219.106C332.303 221.164 332.031 223.191 331.486 225.189C330.941 227.186 329.912 229.305 328.399 231.544C326.886 233.784 324.707 236.295 321.862 239.08L298.801 261.323L296.622 257.782H335.027V265.681H289.359ZM368.368 266.407C363.405 266.407 358.957 265.136 355.022 262.594C351.149 260.052 348.062 256.36 345.762 251.518C343.522 246.676 342.403 240.805 342.403 233.905C342.403 227.005 343.522 221.134 345.762 216.291C348.062 211.449 351.149 207.757 355.022 205.215C358.957 202.673 363.405 201.402 368.368 201.402C373.271 201.402 377.69 202.673 381.624 205.215C385.558 207.757 388.645 211.449 390.884 216.291C393.124 221.134 394.244 227.005 394.244 233.905C394.244 240.805 393.124 246.676 390.884 251.518C388.645 256.36 385.558 260.052 381.624 262.594C377.69 265.136 373.271 266.407 368.368 266.407ZM368.368 258.327C371.697 258.327 374.603 257.419 377.084 255.603C379.626 253.788 381.594 251.064 382.986 247.432C384.438 243.801 385.165 239.292 385.165 233.905C385.165 228.518 384.438 224.009 382.986 220.377C381.594 216.745 379.626 214.022 377.084 212.206C374.603 210.39 371.697 209.482 368.368 209.482C365.04 209.482 362.104 210.39 359.562 212.206C357.02 214.022 355.022 216.745 353.57 220.377C352.178 224.009 351.482 228.518 351.482 233.905C351.482 239.292 352.178 243.801 353.57 247.432C355.022 251.064 357.02 253.788 359.562 255.603C362.104 257.419 365.04 258.327 368.368 258.327ZM401.96 265.681V259.507L427.835 234.54C430.135 232.361 431.83 230.455 432.919 228.82C434.069 227.126 434.826 225.582 435.189 224.19C435.613 222.738 435.825 221.345 435.825 220.014C435.825 216.745 434.675 214.173 432.375 212.297C430.075 210.42 426.715 209.482 422.297 209.482C418.908 209.482 415.851 210.057 413.127 211.207C410.404 212.297 408.043 214.022 406.046 216.382L399.872 211.026C402.293 207.939 405.531 205.578 409.586 203.944C413.702 202.249 418.211 201.402 423.114 201.402C427.533 201.402 431.376 202.128 434.644 203.581C437.913 204.973 440.425 207.001 442.18 209.664C443.996 212.327 444.904 215.474 444.904 219.106C444.904 221.164 444.631 223.191 444.087 225.189C443.542 227.186 442.513 229.305 441 231.544C439.487 233.784 437.308 236.295 434.463 239.08L411.402 261.323L409.223 257.782H447.627V265.681H401.96ZM452.411 250.065V243.71L484.914 202.128H494.719L462.489 243.71L457.858 242.257H508.61V250.065H452.411ZM487.728 265.681V250.065L488.001 242.257V228.457H496.535V265.681H487.728Z" fill="black"/>
</svg>