<svg width="255" height="347" viewBox="0 0 255 347" fill="none" xmlns="http://www.w3.org/2000/svg">
<rect x="40" y="79.2891" width="155" height="98" rx="1.5" stroke="#0066FF" stroke-width="3"/>
<rect x="47" y="85.2891" width="142" height="72" rx="1.5" stroke="#0066FF" stroke-width="3"/>
<line x1="39.5" y1="157.289" x2="194.5" y2="157.289" stroke="#0066FF" stroke-width="3"/>
<rect x="90" y="196.289" width="54" height="15" rx="7.5" stroke="#0066FF" stroke-width="3"/>
<rect x="100" y="177.289" width="35" height="19" stroke="#0066FF" stroke-width="3"/>
<circle cx="54.5" cy="166.789" r="4.5" stroke="#0066FF" stroke-width="3"/>
<circle cx="175" cy="164.289" r="30" fill="white" stroke="url(#paint0_linear_231_10)" stroke-width="3"/>
<path d="M124.5 231.789V292.289H69.5C65.5 218.289 6 212.499 6 127C16.5 -39.4998 216 -16.9999 216 94.2893L248 139.289C246.798 146.808 241.536 149.657 227.5 153.289C227.222 160.86 229.263 164.226 234 169.789L227.5 175.789L234 184.289C222.806 191.671 223.342 196.756 227.5 206.289C227.97 229.814 218.797 235.83 183 231.789C167.387 250.272 166.948 265.11 167.5 292.289H151M76.5001 316.789H161.5M90.5001 340.789H147.5" stroke="url(#paint1_linear_231_10)" stroke-width="12" stroke-linecap="round"/>
<path d="M110.133 124.774C107.042 123.115 103.159 124.261 101.485 127.382C99.8259 130.473 100.972 134.356 104.093 136.03C107.184 137.689 111.067 136.542 112.741 133.422C114.4 130.331 113.224 126.432 110.133 124.774ZM105.204 133.96C103.25 132.911 102.507 130.446 103.555 128.493C104.604 126.539 107.068 125.796 109.022 126.844C110.976 127.893 111.719 130.357 110.671 132.311C109.622 134.265 107.158 135.008 105.204 133.96ZM114.311 116.987L114.166 116.909C113.145 116.361 112.208 116.009 112.149 115.977C111.651 115.785 111.114 115.947 110.776 116.367L109.357 118.31C108.606 118.17 107.853 118.104 107.098 118.112L106.137 115.981C105.915 115.486 105.403 115.25 104.884 115.309C104.839 115.322 103.842 115.501 102.737 115.809L102.558 115.863C101.437 116.201 100.537 116.619 100.492 116.633C99.9971 116.855 99.731 117.351 99.8192 117.887L100.195 120.267C99.5609 120.678 98.9833 121.194 98.4349 121.726L96.2371 120.922C95.7392 120.73 95.1859 120.922 94.8772 121.357C94.8323 121.37 94.2462 122.183 93.6985 123.203L93.6203 123.349C93.0726 124.37 92.7197 125.307 92.6884 125.366C92.4964 125.863 92.6585 126.401 93.0782 126.739L95.0213 128.157C94.8812 128.908 94.815 129.662 94.8228 130.417L92.6925 131.377C92.1975 131.6 91.9606 132.111 92.0196 132.631C92.0331 132.676 92.2116 133.673 92.5203 134.778L92.5743 134.957C92.9121 136.077 93.3303 136.978 93.3439 137.023C93.5665 137.518 94.0622 137.784 94.5978 137.696L96.9777 137.32C97.3888 137.954 97.9052 138.531 98.4372 139.08L97.6334 141.278C97.4413 141.775 97.6327 142.329 98.068 142.638C98.0815 142.682 98.8937 143.268 99.9144 143.816L100.06 143.894C101.081 144.442 102.018 144.795 102.077 144.826C102.574 145.018 103.112 144.856 103.45 144.437L104.868 142.493C105.62 142.634 106.373 142.7 107.128 142.692L108.088 144.822C108.311 145.317 108.822 145.554 109.342 145.495C109.387 145.482 110.384 145.303 111.489 144.994L111.668 144.94C112.788 144.603 113.689 144.184 113.734 144.171C114.229 143.948 114.495 143.452 114.407 142.917L114.06 140.553C114.694 140.142 115.272 139.625 115.82 139.093L118.018 139.897C118.516 140.089 119.069 139.898 119.378 139.462C119.393 139.433 119.995 138.592 120.543 137.571L120.621 137.425C121.169 136.405 121.522 135.467 121.553 135.409C121.745 134.911 121.583 134.373 121.163 134.035L119.22 132.617C119.36 131.866 119.426 131.113 119.419 130.357L121.565 129.368C122.06 129.145 122.296 128.634 122.237 128.114C122.224 128.069 122.045 127.072 121.737 125.968L121.683 125.788C121.345 124.668 120.927 123.768 120.913 123.723C120.691 123.228 120.195 122.962 119.659 123.05L117.264 123.454C116.853 122.821 116.336 122.243 115.804 121.695L116.608 119.497C116.8 118.999 116.609 118.446 116.173 118.137C116.144 118.121 115.332 117.535 114.311 116.987ZM112.135 118.524C112.413 118.635 112.734 118.808 113.055 118.98L113.2 119.058C113.521 119.23 113.842 119.402 114.089 119.572L113.318 121.638C113.142 122.106 113.291 122.599 113.636 122.935C114.431 123.624 115.118 124.444 115.639 125.362C115.794 125.633 116.07 125.819 116.364 125.901C116.525 125.95 116.718 125.941 116.882 125.916L119.053 125.579C119.163 125.864 119.287 126.193 119.395 126.551L119.449 126.731C119.557 127.089 119.636 127.432 119.702 127.73L117.706 128.65C117.256 128.859 117.005 129.325 117.022 129.785C117.111 130.809 117.007 131.842 116.741 132.827C116.594 133.311 116.756 133.849 117.162 134.142L118.975 135.453C118.864 135.731 118.692 136.052 118.519 136.373L118.457 136.489C118.285 136.81 118.113 137.131 117.943 137.378L115.877 136.607C115.437 136.446 114.915 136.579 114.58 136.925C113.89 137.72 113.087 138.378 112.198 138.915C112.108 138.942 112.032 139.013 111.956 139.085C111.667 139.343 111.522 139.754 111.585 140.126L111.936 142.342C111.651 142.452 111.322 142.576 110.963 142.684L110.784 142.738C110.426 142.846 110.083 142.925 109.785 142.991L108.865 140.995C108.627 140.529 108.131 140.263 107.64 140.338C106.632 140.397 105.598 140.293 104.598 140.057C104.143 139.926 103.634 140.103 103.341 140.51L102.03 142.323C101.752 142.211 101.432 142.039 101.111 141.867L100.994 141.804C100.673 141.632 100.353 141.46 100.106 141.29L100.907 139.166C101.1 138.668 100.937 138.13 100.502 137.822C99.7368 137.148 99.0789 136.344 98.5711 135.471C98.416 135.2 98.14 135.014 97.8463 134.932C97.6848 134.883 97.4921 134.892 97.3285 134.917L95.1861 135.269C95.0759 134.985 94.9521 134.656 94.844 134.297L94.79 134.118C94.6819 133.759 94.6029 133.417 94.5375 133.118L96.5334 132.199C96.9836 131.99 97.2183 131.552 97.2176 131.064C97.2041 131.019 97.2198 130.99 97.2063 130.945C97.1466 129.936 97.2504 128.903 97.5158 127.918C97.6474 127.463 97.4696 126.955 97.0634 126.662L95.2504 125.351C95.3621 125.073 95.5343 124.752 95.7064 124.431L95.769 124.314C95.9411 123.994 96.1133 123.673 96.2833 123.426L98.3488 124.196C98.8467 124.388 99.3844 124.226 99.6931 123.791L99.7088 123.762C100.382 122.997 101.17 122.368 102.044 121.86C102.331 121.676 102.561 121.386 102.601 121.032C102.634 120.9 102.609 120.736 102.585 120.573L102.261 118.446C102.545 118.336 102.875 118.212 103.233 118.104L103.413 118.05C103.771 117.942 104.114 117.863 104.412 117.797L105.332 119.793C105.554 120.288 106.124 120.556 106.63 120.453C107.639 120.393 108.628 120.51 109.598 120.731C110.054 120.862 110.562 120.685 110.855 120.278L112.135 118.524Z" fill="#A60050"/>
<path d="M76 107.688C71.2761 107.688 67.3989 111.521 67.3989 116.289C67.3989 121.013 71.2315 124.89 76 124.89C80.7239 124.89 84.6011 121.058 84.6011 116.289C84.6011 111.565 80.7239 107.688 76 107.688ZM76 121.726C73.0141 121.726 70.563 119.275 70.563 116.289C70.563 113.303 73.0141 110.852 76 110.852C78.9859 110.852 81.437 113.303 81.437 116.289C81.437 119.275 78.9859 121.726 76 121.726ZM76 95.7891H75.7772C74.2174 95.7891 72.8804 95.9673 72.7913 95.9673C72.0783 96.0565 71.5435 96.5912 71.4098 97.3043L70.9641 100.513C69.9837 100.825 69.0478 101.226 68.1565 101.716L65.6609 99.7999C65.0815 99.3543 64.3239 99.3988 63.7446 99.7999C63.7 99.8445 62.6304 100.691 61.5163 101.761L61.338 101.939C60.2239 103.053 59.4217 104.123 59.3772 104.167C58.9315 104.747 58.9315 105.504 59.3772 106.084L61.338 108.668C60.8478 109.56 60.4913 110.54 60.1793 111.521L57.0598 111.966C56.3467 112.055 55.812 112.635 55.7228 113.348C55.6783 113.392 55.5 114.729 55.5 116.289V116.512C55.5 118.072 55.6783 119.409 55.6783 119.498C55.7674 120.211 56.3022 120.746 57.0152 120.879L60.2239 121.325C60.5359 122.305 60.937 123.241 61.4272 124.133L59.5109 126.628C59.0652 127.208 59.1098 127.965 59.5109 128.544C59.5554 128.589 60.4022 129.659 61.4717 130.773L61.65 130.951C62.7641 132.065 63.8337 132.867 63.8783 132.912C64.4576 133.358 65.2152 133.358 65.7946 132.912L68.3793 130.951C69.2707 131.441 70.2511 131.798 71.2315 132.11L71.6772 135.229C71.7663 135.942 72.3457 136.477 73.0587 136.566C73.1033 136.611 74.4402 136.789 76 136.789H76.2228C77.7826 136.789 79.1196 136.611 79.2087 136.611C79.9217 136.522 80.4565 135.987 80.5902 135.274L81.0359 132.065C82.0163 131.753 82.9522 131.352 83.8435 130.862L86.3391 132.778C86.9185 133.224 87.6761 133.179 88.2554 132.778C88.3 132.734 89.3696 131.887 90.4837 130.817L90.662 130.639C91.7761 129.525 92.5783 128.455 92.6228 128.411C93.0685 127.831 93.0685 127.074 92.6228 126.494L90.7065 123.91C91.1967 123.018 91.5533 122.038 91.8652 121.058L94.9848 120.612C95.6978 120.523 96.2326 119.943 96.3217 119.23C96.3217 119.186 96.5 117.804 96.5 116.244V116.022C96.5 114.462 96.3217 113.125 96.3217 113.036C96.2326 112.323 95.6978 111.788 94.9848 111.654L91.7761 111.209C91.4641 110.228 91.063 109.292 90.5728 108.401L92.4891 105.861C92.9348 105.281 92.8902 104.524 92.4891 103.944C92.4446 103.9 91.5978 102.83 90.5283 101.716L90.35 101.538C89.2359 100.424 88.1663 99.6217 88.1217 99.5771C87.5424 99.1315 86.7848 99.1315 86.2054 99.5771L83.6207 101.583C82.7293 101.092 81.7489 100.736 80.7685 100.424L80.3228 97.3043C80.2337 96.5912 79.6543 96.0565 78.9413 95.9673C78.8967 95.9673 77.5598 95.7891 76 95.7891ZM74.3957 98.9978C74.7967 98.9532 75.287 98.9532 75.7772 98.9532H76C76.4902 98.9532 76.9804 98.9532 77.3815 98.9978L77.7826 101.939C77.8717 102.608 78.362 103.098 78.9859 103.276C80.3674 103.588 81.7043 104.123 82.9076 104.88C83.2641 105.103 83.7098 105.148 84.1109 105.059C84.3337 105.014 84.5565 104.88 84.7348 104.747L87.0967 102.964C87.4087 103.231 87.7652 103.543 88.1217 103.9L88.3 104.078C88.6565 104.435 88.9685 104.791 89.2359 105.103L87.4533 107.465C87.0522 108 87.0522 108.713 87.3641 109.248C88.1217 110.406 88.6565 111.699 88.9685 113.036C89.1022 113.704 89.637 114.239 90.3054 114.328L93.2913 114.729C93.3359 115.13 93.3359 115.621 93.3359 116.111V116.289C93.3359 116.779 93.3359 117.269 93.2913 117.671L90.35 118.072C89.7261 118.161 89.1913 118.651 89.013 119.275C88.7011 120.656 88.1663 121.949 87.4533 123.152C87.3641 123.241 87.3196 123.375 87.275 123.509C87.0967 123.999 87.1859 124.578 87.4978 124.979L89.325 127.386C89.0576 127.698 88.7457 128.054 88.3891 128.411L88.2109 128.589C87.8544 128.946 87.4978 129.258 87.1859 129.525L84.8239 127.742C84.2446 127.341 83.487 127.341 82.9522 127.742C81.7935 128.455 80.5011 128.99 79.1641 129.347C78.5402 129.48 78.05 130.015 77.9609 130.684L77.5598 133.669C77.1587 133.714 76.6685 133.714 76.1783 133.714H76C75.5098 133.714 75.0196 133.714 74.6185 133.669L74.2174 130.639C74.1283 129.926 73.5935 129.391 72.8804 129.302C71.5435 128.99 70.2511 128.455 69.0924 127.742C68.7359 127.519 68.2902 127.475 67.8891 127.564C67.6663 127.609 67.4435 127.742 67.2652 127.876L64.9478 129.659C64.6359 129.391 64.2793 129.079 63.9228 128.723L63.7446 128.544C63.388 128.188 63.0761 127.831 62.8087 127.519L64.5913 125.158C64.9924 124.623 64.9924 123.954 64.6804 123.375C64.6359 123.33 64.6359 123.286 64.5913 123.241C63.8783 122.083 63.3435 120.79 63.0315 119.453C62.8978 118.829 62.363 118.339 61.6946 118.25L58.7087 117.849C58.6641 117.448 58.6641 116.958 58.6641 116.467V116.289C58.6641 115.799 58.6641 115.309 58.7087 114.908L61.65 114.506C62.363 114.417 62.8978 113.883 62.987 113.169V113.125C63.2989 111.788 63.8337 110.54 64.5467 109.381C64.7696 108.98 64.8587 108.49 64.6804 108.044C64.6359 107.866 64.5022 107.688 64.3685 107.51L62.6304 105.192C62.8978 104.88 63.2098 104.524 63.5663 104.167L63.7446 103.989C64.1011 103.633 64.4576 103.321 64.7696 103.053L67.1315 104.836C67.7109 105.281 68.5576 105.237 69.0924 104.791C70.2511 104.078 71.4989 103.588 72.7913 103.231C73.4152 103.098 73.9054 102.563 73.9946 101.894L74.3957 98.9978Z" fill="#A60050"/>
<path d="M175.814 156.531C171.709 156.531 168.34 159.923 168.34 164.143C168.34 168.324 171.67 171.756 175.814 171.756C179.919 171.756 183.288 168.364 183.288 164.143C183.288 159.963 179.919 156.531 175.814 156.531ZM175.814 168.955C173.219 168.955 171.089 166.786 171.089 164.143C171.089 161.501 173.219 159.331 175.814 159.331C178.408 159.331 180.538 161.501 180.538 164.143C180.538 166.786 178.408 168.955 175.814 168.955ZM175.814 146H175.62C174.265 146 173.103 146.158 173.025 146.158C172.406 146.237 171.941 146.71 171.825 147.341L171.438 150.181C170.586 150.457 169.773 150.812 168.998 151.246L166.829 149.55C166.326 149.155 165.668 149.195 165.164 149.55C165.125 149.589 164.196 150.339 163.228 151.285L163.073 151.443C162.105 152.429 161.408 153.376 161.369 153.415C160.982 153.928 160.982 154.598 161.369 155.111L163.073 157.399C162.647 158.188 162.337 159.055 162.066 159.923L159.355 160.318C158.736 160.396 158.271 160.909 158.194 161.54C158.155 161.58 158 162.763 158 164.143V164.341C158 165.721 158.155 166.904 158.155 166.983C158.232 167.614 158.697 168.088 159.317 168.206L162.105 168.6C162.376 169.468 162.725 170.296 163.15 171.085L161.485 173.294C161.098 173.807 161.137 174.477 161.485 174.99C161.524 175.03 162.26 175.976 163.189 176.962L163.344 177.12C164.312 178.106 165.242 178.816 165.28 178.855C165.784 179.25 166.442 179.25 166.946 178.855L169.192 177.12C169.966 177.554 170.818 177.869 171.67 178.145L172.057 180.906C172.135 181.537 172.638 182.011 173.258 182.09C173.297 182.129 174.458 182.287 175.814 182.287H176.007C177.363 182.287 178.524 182.129 178.602 182.129C179.222 182.05 179.686 181.577 179.802 180.946L180.19 178.106C181.042 177.83 181.855 177.475 182.629 177.041L184.798 178.737C185.301 179.132 185.96 179.092 186.463 178.737C186.502 178.698 187.431 177.948 188.399 177.002L188.554 176.844C189.523 175.858 190.22 174.911 190.258 174.872C190.646 174.359 190.646 173.688 190.258 173.176L188.593 170.888C189.019 170.099 189.329 169.232 189.6 168.364L192.311 167.969C192.93 167.89 193.395 167.378 193.473 166.747C193.473 166.707 193.627 165.484 193.627 164.104V163.907C193.627 162.526 193.473 161.343 193.473 161.264C193.395 160.633 192.93 160.16 192.311 160.041L189.523 159.647C189.251 158.779 188.903 157.951 188.477 157.162L190.142 154.914C190.529 154.401 190.491 153.731 190.142 153.218C190.103 153.178 189.368 152.232 188.438 151.246L188.283 151.088C187.315 150.102 186.386 149.392 186.347 149.353C185.844 148.958 185.185 148.958 184.682 149.353L182.436 151.127C181.661 150.694 180.809 150.378 179.957 150.102L179.57 147.341C179.493 146.71 178.989 146.237 178.37 146.158C178.331 146.158 177.169 146 175.814 146ZM174.42 148.84C174.768 148.8 175.194 148.8 175.62 148.8H175.814C176.24 148.8 176.666 148.8 177.014 148.84L177.363 151.443C177.44 152.035 177.866 152.469 178.408 152.626C179.609 152.902 180.771 153.376 181.816 154.046C182.126 154.243 182.513 154.283 182.862 154.204C183.055 154.165 183.249 154.046 183.404 153.928L185.456 152.35C185.727 152.587 186.037 152.863 186.347 153.178L186.502 153.336C186.812 153.652 187.083 153.967 187.315 154.243L185.766 156.334C185.418 156.807 185.418 157.438 185.689 157.912C186.347 158.937 186.812 160.081 187.083 161.264C187.199 161.856 187.664 162.329 188.245 162.408L190.839 162.763C190.878 163.118 190.878 163.552 190.878 163.986V164.143C190.878 164.577 190.878 165.011 190.839 165.366L188.283 165.721C187.741 165.8 187.276 166.234 187.122 166.786C186.85 168.009 186.386 169.153 185.766 170.218C185.689 170.296 185.65 170.415 185.611 170.533C185.456 170.967 185.534 171.48 185.805 171.835L187.393 173.965C187.16 174.241 186.889 174.556 186.579 174.872L186.424 175.03C186.115 175.345 185.805 175.621 185.534 175.858L183.481 174.28C182.978 173.925 182.32 173.925 181.855 174.28C180.848 174.911 179.725 175.385 178.563 175.7C178.021 175.818 177.595 176.292 177.518 176.883L177.169 179.526C176.821 179.565 176.395 179.565 175.969 179.565H175.814C175.388 179.565 174.962 179.565 174.613 179.526L174.265 176.844C174.187 176.213 173.723 175.739 173.103 175.661C171.941 175.385 170.818 174.911 169.811 174.28C169.501 174.083 169.114 174.043 168.766 174.122C168.572 174.162 168.378 174.28 168.224 174.398L166.21 175.976C165.939 175.739 165.629 175.463 165.319 175.148L165.164 174.99C164.854 174.675 164.583 174.359 164.351 174.083L165.9 171.992C166.249 171.519 166.249 170.928 165.977 170.415C165.939 170.375 165.939 170.336 165.9 170.296C165.28 169.271 164.816 168.127 164.545 166.944C164.428 166.392 163.964 165.958 163.383 165.879L160.788 165.524C160.75 165.169 160.75 164.735 160.75 164.301V164.143C160.75 163.71 160.75 163.276 160.788 162.921L163.344 162.566C163.964 162.487 164.428 162.014 164.506 161.382V161.343C164.777 160.16 165.242 159.055 165.861 158.03C166.055 157.675 166.132 157.241 165.977 156.847C165.939 156.689 165.823 156.531 165.706 156.373L164.196 154.322C164.428 154.046 164.7 153.731 165.009 153.415L165.164 153.257C165.474 152.942 165.784 152.666 166.055 152.429L168.107 154.007C168.611 154.401 169.347 154.362 169.811 153.967C170.818 153.336 171.902 152.902 173.025 152.587C173.568 152.469 173.994 151.995 174.071 151.404L174.42 148.84Z" fill="#A60050"/>
<defs>
<linearGradient id="paint0_linear_231_10" x1="175" y1="132.789" x2="175" y2="195.789" gradientUnits="userSpaceOnUse">
<stop stop-color="#8F00FF"/>
<stop offset="1" stop-color="#002774"/>
</linearGradient>
<linearGradient id="paint1_linear_231_10" x1="127" y1="6.43848" x2="127" y2="340.789" gradientUnits="userSpaceOnUse">
<stop stop-color="#042778"/>
<stop offset="1" stop-color="#8D01FD"/>
</linearGradient>
</defs>
</svg>
