<?xml version="1.0" encoding="utf-8"?>
<svg width="2406" height="2406" viewBox="139.19 730.038 960.128 954.446" fill="none" xmlns="http://www.w3.org/2000/svg">
  <path fill-rule="evenodd" clip-rule="evenodd" d="M537.981 1412.35C541.703 1483.83 580.417 1552.05 647.024 1590.5C751.581 1650.87 885.277 1615.04 945.643 1510.49C1006.01 1405.93 970.185 1272.23 865.628 1211.87C832.061 1192.49 795.491 1183.02 759.308 1182.56L759.308 1065.09C787.691 1060.15 809.272 1035.4 809.272 1005.61C809.272 972.26 782.24 945.229 748.895 945.229C715.55 945.229 688.519 972.26 688.519 1005.61C688.519 1033.93 708.019 1057.69 734.325 1064.21L734.325 1183.67C707.344 1186.43 681.027 1194.17 656.823 1206.51C656.738 1231.57 652.715 1256.82 644.502 1281.33L711.964 1320.28C738.653 1306.74 771.435 1306.54 799.284 1322.62C843.098 1347.91 858.11 1403.94 832.814 1447.75C807.518 1491.57 751.493 1506.58 707.678 1481.28C676.848 1463.48 660.279 1430.47 661.979 1397.2L599.398 1361.07C581.66 1381.87 560.821 1399.06 537.981 1412.35ZM967.495 1005.6C967.495 1082.52 927.776 1150.15 867.732 1189.11C844.804 1175.98 819.496 1166.53 792.614 1161.57L792.614 1089.3C822.274 1074.14 842.579 1043.28 842.579 1007.69C842.579 957.094 801.565 916.081 750.973 916.081C700.381 916.081 659.367 957.094 659.367 1007.69C659.367 1039.85 675.939 1068.13 701.009 1084.48L701.009 1162.38C675.675 1167.52 651.793 1176.66 630.052 1189.12C605.447 1173.15 584.255 1152.37 567.811 1128.11L466.089 1186.84C467.229 1191.47 467.834 1196.32 467.834 1201.31C467.834 1234.65 440.803 1261.68 407.458 1261.68C374.113 1261.68 347.081 1234.65 347.081 1201.31C347.081 1167.96 374.113 1140.93 407.458 1140.93C426.857 1140.93 444.119 1150.08 455.165 1164.3L554.996 1106.66C539.211 1076.44 530.286 1042.06 530.286 1005.6C530.286 884.873 628.158 787 748.89 787C869.622 787 967.495 884.873 967.495 1005.6ZM753.058 1457.39C719.713 1457.39 692.682 1430.36 692.682 1397.01C692.682 1390.55 693.696 1384.33 695.573 1378.5L589.147 1317.05C570.789 1346.53 545.121 1372.06 512.944 1390.64C408.387 1451 274.69 1415.18 214.325 1310.62C153.959 1206.06 189.782 1072.37 294.339 1012C360.947 973.546 439.38 974.127 503.148 1006.65C503.237 1033.07 507.706 1059.71 516.85 1085.47L454.263 1121.6C426.302 1103.5 389.429 1101.34 358.601 1119.14C314.786 1144.44 299.775 1200.46 325.071 1244.28C350.367 1288.09 406.392 1303.1 450.206 1277.81C478.058 1261.73 494.271 1233.23 495.89 1203.35L563.35 1164.4C580.471 1183.77 600.33 1199.88 621.987 1212.48C620.496 1241.12 613.388 1269.23 601.121 1295.12L707.998 1356.82C719.055 1344.43 735.146 1336.63 753.058 1336.63C786.403 1336.63 813.435 1363.67 813.435 1397.01C813.435 1430.36 786.403 1457.39 753.058 1457.39Z" fill="url(#paint0_radial_220_75)"/>
  <defs>
    <radialGradient id="paint0_radial_220_75" cx="0" cy="0" r="1" gradientUnits="userSpaceOnUse" gradientTransform="translate(579.984 1203.41) rotate(180) scale(394.983 416.413)">
      <stop stop-color="#9E00FF"/>
      <stop offset="1" stop-color="#6100FF"/>
    </radialGradient>
  </defs>
</svg>